<?xml version="1.0" encoding="utf-8"?>
<!-- Generator: Adobe Illustrator 16.0.1, SVG Export Plug-In . SVG Version: 6.00 Build 0)  -->
<!DOCTYPE svg PUBLIC "-//W3C//DTD SVG 1.1//EN" "http://www.w3.org/Graphics/SVG/1.1/DTD/svg11.dtd">
<svg version="1.1" id="Layer_1" xmlns="http://www.w3.org/2000/svg" xmlns:xlink="http://www.w3.org/1999/xlink" x="0px" y="0px"
	 width="123.285px" height="162.688px" viewBox="0 0 123.285 162.688" enable-background="new 0 0 123.285 162.688"
	 xml:space="preserve">
<g id="Layer_2">
	<path fill="#010101" d="M122.328,55.91c-1.121,6.547-5.602,11.774-7.203,18.089c-1.418,5.585-2.383,11.292-3.396,16.973
		c-0.463,2.603-0.529,5.271-0.857,7.9c-0.051,0.389-0.547,0.721-0.836,1.079c-0.146-0.403-0.443-0.823-0.406-1.21
		c0.396-4.051,0.744-8.109,1.311-12.141c0.838-5.979,2.06-11.868,4.562-17.436c1.778-3.956,4.013-7.872,4.847-12.045
		c0.887-4.432,0.539-9.148,0.394-13.73c-0.108-3.405-0.581-6.824-1.196-10.182c-1.383-7.534-3.846-14.623-8.838-20.664
		c-3.365-4.073-7.416-6.81-12.65-7.858C92.4,3.552,87.248,4.914,82.507,7.804c-6.704,4.088-11.366,10.056-14.778,17.133
		c1.25,0.743,2.668,1.29,3.655,2.271c0.779,0.771,1.015,2.086,1.513,3.147c0.25,0.532,0.487,1.087,0.84,1.548
		c1.834,2.411,4.164,4.575,5.432,7.248c1.336,2.817,1.666,6.111,2.457,9.286c2.25-2.017,4.836-4.332,7.871-7.052
		c-0.625,1.45-1.016,2.354-1.469,3.406c3.287,0.001,6.83,2.337,9.297-1.78c-0.178,0.683-0.352,1.365-0.617,2.406
		c0.812-0.919,1.395-1.57,2.266-2.554c0,0.979,0,1.442,0,2.133c0.795-0.761,1.48-1.417,2.438-2.332
		c-0.037,0.802-0.059,1.227-0.104,2.224c1.394-0.406,2.754-0.626,3.959-1.188c3.387-1.581,6.688-3.345,10.064-4.946
		c1.146-0.543,1.379-1.081,0.35-2.005c2.568-0.059,3.189,0.833,3.041,4.426c-0.713-1.676-1.436-1.979-3.008-0.997
		c-3.268,2.037-6.885,3.521-10.105,5.621c-3.147,2.055-6.506,1.859-9.932,1.842c-2.162-0.012-4.324-0.002-5.908-0.002
		c-2.664,2.991-5.041,5.657-7.367,8.271c2.729,5.557,2.375,11.656,3.55,17.771c5.084-1.005,10.228-2.02,15.754-3.11
		c-1.604,0.849-2.877,1.521-4.513,2.386c2.375,1.271,3.564,2.958,3.957,5.259c0.064,0.382,0.982,0.598,1.48,0.93
		c0.795,0.529,1.566,1.092,2.189,1.953c-1.012-0.426-2.021-0.851-3.172-1.333c0.25,3.478,0.951,6.431,4.772,7.603
		c-0.139,0.123-0.274,0.245-0.412,0.369c-0.946-0.319-1.893-0.645-2.838-0.964c-0.082,0.142-0.162,0.277-0.243,0.418
		c1.276,0.868,2.555,1.736,4.014,2.729c-0.394,0.149-0.683,0.264-0.994,0.384c0.156,0.301,0.316,0.604,0.59,1.119
		c-0.852-0.351-1.479-0.607-2.109-0.866c-0.082,0.204-0.191,0.339-0.17,0.441c0.945,4.151,1.986,8.286,2.805,12.466
		c0.229,1.179-0.078,2.426,0.236,3.705c0.477,1.919,0.6,3.941,0.693,5.933c0.092,1.91,0.68,2.854,3.039,1.66
		c-1.984,1.979-4.012,2.316-6.471,1.164c0.914-0.106,1.547-0.184,2.312-0.271c0.221-1.618-0.104-3.047-1.035-4.492
		c-0.617-0.956-0.812-2.219-1.062-3.372c-0.614-2.855-1.215-5.724-1.701-8.604c-0.196-1.157,0.046-2.386-1.758-2.408
		c-0.336-0.005-0.881-0.88-0.957-1.406c-0.727-4.971-1.336-9.958-2.063-14.929c-0.16-1.08-0.666-2.107-1.053-3.282
		c-1.111,0.538-1.955,0.946-2.902,1.406c0.228,0.438,0.438,0.848,0.543,1.051c-1.18,0-2.37,0-3.562,0
		c0.171,0.511,0.339,1.021,0.66,2.005c-1.92-1.986-3.813-1.636-5.477-0.755c0,3.879,0.062,7.648-0.035,11.415
		c-0.031,1.227,0.479,1.804,1.484,2.18c3.662,1.373,7.43,2.544,10.104,5.705c0.242,0.286,0.961,0.214,1.461,0.229
		c0.984,0.031,1.976,0.011,2.959,0.011c0.012,0.201,0.021,0.402,0.027,0.604c-1.311,0.402-2.621,0.808-3.873,1.191
		c-0.258,3.143,2.029,4.59,3.83,6.429c-0.754-0.271-1.506-0.537-2.277-0.812c-1.418,2.788,2.203,2.406,2.478,4.412
		c-0.808-0.284-1.461-0.517-2.115-0.746c-0.159,0.117-0.319,0.233-0.479,0.354c0.957,1.229,1.914,2.457,2.869,3.688
		c-0.045,0.073-0.092,0.146-0.14,0.223c-0.633-0.345-1.267-0.688-1.899-1.031c-0.16,0.116-0.318,0.233-0.479,0.353
		c0.967,1.349,1.934,2.694,3.223,4.493c-1.137-0.626-1.771-0.979-2.41-1.328c-0.176,0.129-0.352,0.259-0.524,0.389
		c0.957,1.587,1.914,3.176,2.858,4.745c-0.377-0.121-0.916-0.295-2.102-0.676c0.531,1.121,0.746,1.92,1.227,2.496
		c0.525,0.629,1.3,1.054,1.726,1.966c-0.621-0.236-1.242-0.477-2.274-0.87c0.851,3.315-0.252,6.979,3.414,9.161
		c-0.871-0.294-1.742-0.588-3.281-1.105c1.026,4.574,1.938,8.646,2.854,12.719c0.158-0.044,0.314-0.087,0.477-0.131
		c-0.258,0.368-0.77,0.772-0.725,1.103c0.215,1.573,0.701,3.115,0.855,4.69c0.16,1.636,0.18,3.31,0.021,4.942
		c-0.184,1.917,0.673,2.498,2.543,2.171c-0.041,0.186-0.082,0.366-0.125,0.551c-1.823,0.112-3.649,0.229-6.034,0.377
		c2.297-1.164,2.623-3.317,1.491-5.673c-0.289-0.604-0.254-1.384-0.28-2.086c-0.072-1.934,0.75-4.047-1.306-5.552
		c-0.246-0.182-0.133-0.862-0.174-1.312c-0.271-2.963-0.422-5.94-0.854-8.88c-0.162-1.095-0.978-2.093-1.685-3.513
		c-1.006,1.053-1.646,1.721-1.916,2.003c0.364-2.479,0.799-5.423,1.229-8.366c-0.209-0.068-0.42-0.141-0.631-0.211
		c-0.504,0.351-1.006,0.696-1.646,1.143c0.649-2.013,1.269-3.913,1.885-5.813c-0.198-0.082-0.396-0.163-0.594-0.245
		c-0.472,0.564-0.938,1.131-1.315,1.586c0.514-2.634,1.045-5.354,1.575-8.069c-0.231-0.077-0.467-0.153-0.7-0.23
		c-0.47,0.552-0.938,1.104-1.404,1.653c-0.104-0.045-0.209-0.091-0.312-0.138c0.617-1.523,1.23-3.053,1.85-4.576
		c-0.217-0.146-0.432-0.291-0.646-0.438c-0.33,0.647-0.66,1.298-0.99,1.946c-0.174-0.141-0.351-0.276-0.522-0.415
		c0.257-0.697,0.438-1.438,0.781-2.087c2.135-3.985,1.539-5.437-2.724-6.516c-0.179-0.045-0.342-0.143-0.479-0.2
		c-0.658,0.909-1.289,1.781-1.92,2.652c0.685-1.84,0.931-3.352-1.679-3.775c-0.469,0.675-0.993,1.433-1.709,2.458
		c-0.301-1.562,1.354-3.396-1.133-3.88c-0.466,4.156-0.86,8.307-1.401,12.438c-1.045,7.974-2.429,15.877-6.115,23.146
		c-1.096,2.154-2.438,4.188-3.75,6.418c2.779,3.667,7.233,4.807,11.854,5.635c-5.779,0.554-11.045-0.819-15.979-4.744
		c0.248,2.36,0.427,4.058,0.604,5.752c-0.074,0.027-0.15,0.059-0.229,0.087c-0.65-1.224-1.308-2.444-1.955-3.662
		c-3.207,1.329-3.605,1.199-5.5-1.744c-1.641,4.255-2.03,4.483-5.792,3.267c-0.612,1.112-1.243,2.26-1.873,3.404
		c-0.114-0.029-0.229-0.062-0.343-0.092c0.118-1.007,0.318-2.014,0.333-3.021c0.021-1.382-0.585-1.773-1.837-0.982
		c-4.239,2.679-8.972,3.371-13.906,3.336c4.275-1.058,8.576-2.024,11.711-5.477c-7.556-7.999-10.736-17.967-12.858-28.382
		c-1.022-5.017-1.802-10.078-2.71-15.225c-1.751,0.869-0.284,2.278-0.606,3.688c-0.679-0.948-1.215-1.698-1.751-2.447
		c-2.358,1.028-2.358,1.028-1.585,3.779c-0.644-0.833-1.287-1.666-1.957-2.532c-1.959,0.271-4.292,0.584-4.217,3.229
		c0.052,1.84,1.027,3.651,1.677,5.763c-0.575-0.639-1-1.108-1.425-1.581c-0.185,0.061-0.37,0.119-0.554,0.179
		c0.591,1.549,1.182,3.098,1.773,4.646c-0.095,0.049-0.191,0.099-0.287,0.146c-0.469-0.562-0.938-1.125-1.528-1.835
		c-0.749,3.134-0.054,5.837,1.073,8.562c-0.464-0.565-0.928-1.135-1.411-1.725c-1.248,2.343,1.096,3.889,1.317,6.121
		c-0.68-0.499-1.158-0.85-1.881-1.38c-0.247,3.314-0.533,6.335,1.095,9.223c-0.617-0.662-1.234-1.326-2.145-2.305
		c-0.661,1.104-1.472,1.938-1.671,2.896c-0.47,2.267-0.625,4.597-0.955,6.896c-0.216,1.507,0.589,3.104-1.041,4.521
		c-0.716,0.622-0.664,2.502-0.455,3.725c0.272,1.597-0.048,2.92-0.606,4.366c-0.833,2.163-0.371,3.322,1.255,4.396
		c-1.833-0.091-3.666-0.182-5.499-0.271c2.15-0.697,3.186-2.912,2.743-5.533c-0.35-2.066-0.641-4.201,0.367-6.259
		c0.209-0.426-0.062-1.088-0.088-1.367c0.965-4.217,1.896-8.289,2.923-12.776c-1.054,0.229-1.541,0.29-1.995,0.445
		c-0.434,0.149-0.833,0.399-1.464,0.437c3.801-2.042,2.696-5.758,3.678-9.11c-1.056,0.402-1.682,0.646-2.337,0.896
		c-0.162-2.021,3.708-1.594,2.303-4.276c-0.514,0.192-1.065,0.4-1.544,0.582c0.983-1.604,1.951-3.187,2.919-4.767
		c-0.171-0.146-0.343-0.291-0.514-0.438c-0.63,0.341-1.26,0.681-2.435,1.312c1.306-1.761,2.276-3.065,3.247-4.374
		c-0.14-0.157-0.28-0.313-0.419-0.473c-0.604,0.331-1.208,0.661-1.812,0.991c-0.093-0.062-0.185-0.125-0.278-0.188
		c0.959-1.229,1.919-2.459,2.878-3.688c-0.151-0.132-0.303-0.265-0.455-0.396c-0.625,0.25-1.25,0.5-1.888,0.755
		c-0.333-2.091,3.804-1.517,2.154-4.343c-0.633,0.226-1.378,0.486-2.72,0.964c1.019-0.956,1.64-1.514,2.229-2.103
		c0.553-0.552,1.228-1.061,1.566-1.729c0.385-0.762,0.456-1.681,0.706-2.707c-1.331-0.407-2.652-0.813-4.167-1.278
		c0.343-0.248,0.583-0.564,0.778-0.541c2.23,0.29,3.856-0.647,5.667-1.943c2.368-1.692,5.204-2.751,7.886-3.979
		c0.818-0.374,1.479-0.556,1.411-1.693c-0.106-1.776-0.032-3.564-0.021-5.351c0.009-1.509,0.115-3.021,0.025-4.521
		c-0.049-0.809-0.171-1.931-0.699-2.321c-0.966-0.721-2.233-0.875-3.294,0.176c-0.2,0.198-0.564,0.229-0.939,0.371
		c0.782-1.521,0.393-2.289-0.939-1.986c-0.718,0.163-1.385,0.555-2.501,1.021c0.447-0.777,0.646-1.124,0.92-1.602
		c-0.87-0.454-1.704-0.89-2.476-1.292c-1.702,1.129-1.364,2.842-1.566,4.49c-0.563,4.596-1.332,9.164-2.082,13.733
		c-0.077,0.467-0.574,1.231-0.875,1.231c-1.639-0.003-1.67,1.04-1.732,2.216c-0.082,1.551-0.102,3.129-0.431,4.635
		c-0.334,1.522-1.055,2.961-1.531,4.46c-0.771,2.43-1.481,4.879-2.283,7.535c1.114,0.093,1.805,0.148,2.583,0.215
		c-1.642,1.205-3.89,0.941-6.42-0.93c0.809,0.176,1.231,0.409,1.512,0.296c0.531-0.217,1.341-0.574,1.404-0.977
		c0.385-2.413,0.564-4.857,0.863-7.286c0.36-2.934,0.728-5.854,1.796-8.657c0.26-0.683-0.191-1.604-0.099-2.392
		c0.109-0.926,0.435-1.828,0.702-2.729c0.245-0.824,0.537-1.638,0.926-2.807c-0.982,0.435-1.558,0.688-2.392,1.057
		c0.199-0.48,0.333-0.806,0.466-1.128c-0.299-0.102-0.597-0.198-1.021-0.343c1.418-0.966,2.737-1.863,4.057-2.765
		c-0.086-0.142-0.172-0.28-0.259-0.423c-0.917,0.326-1.834,0.651-3.15,1.119c0.577-0.634,0.836-1.193,1.214-1.289
		c2.776-0.706,2.771-3.096,3.264-5.195c0.099-0.418,0.231-0.828,0.467-1.663c-1.31,0.521-2.321,0.92-3.332,1.321
		c-0.072-0.104-0.144-0.205-0.215-0.308c0.997-0.654,2.001-1.302,2.988-1.973c0.318-0.217,0.789-0.456,0.855-0.757
		c0.463-2.117,1.367-3.89,4.111-4.898c-1.817-0.996-3.1-1.699-4.636-2.542c5.231,1.044,10.16,2.026,15.183,3.028
		c1.5-5.558,3.004-11.13,4.61-17.082c-2.282-2.541-4.926-5.484-7.978-8.885c-2.229,0-5.274-0.278-8.244,0.076
		c-3.104,0.371-5.555-0.975-8.062-2.228c-3.788-1.894-7.471-3.998-11.355-6.097c-0.353,0.451-0.766,0.979-1.141,1.46
		c-0.45-2.948,0.157-3.938,2.15-4.128c0.468,0.824,0.658,1.702,1.169,1.973c3.758,1.996,7.557,3.921,11.406,5.736
		c0.696,0.328,1.679,0.047,2.562,0.047c-0.052-0.477-0.096-0.886-0.194-1.794c1.003,0.908,1.692,1.53,2.513,2.272
		c0-0.604,0-1.092,0-2.142c0.889,1.027,1.451,1.677,2.229,2.577c-0.227-0.952-0.387-1.625-0.547-2.298
		c2.496,3.685,5.925,1.97,9.256,1.628c-0.426-0.988-0.814-1.889-1.438-3.335c3.299,2.961,6.144,5.514,8.973,8.053
		c0.438-2.904,0.679-5.729,1.318-8.459c1.063-4.546,4.355-7.491,7.87-10.229c0.418-0.325,0.973-1.147,0.835-1.405
		c-0.745-1.404,0.067-1.828,1.127-2.273c0.703-0.295,1.351-0.718,2.132-1.141c-3.985-8.383-9.309-15.488-17.835-19.463
		C30.584,2.879,23.094,3.489,16.26,9.041C10.5,13.7,7.502,20.006,5.392,26.876c-2.595,8.448-3.4,17.122-3.103,25.897
		c0.138,4.064,1.269,7.883,3.295,11.536c3.093,5.578,5.183,11.583,6.118,17.938c0.646,4.395,1.311,8.783,1.936,13.182
		c0.172,1.21,0.275,2.435,0.312,3.653c0.009,0.287-0.378,0.587-0.583,0.881c-0.288-0.291-0.778-0.552-0.829-0.881
		c-0.218-1.403-0.333-2.826-0.438-4.246c-0.57-7.728-1.863-15.313-4.36-22.666c-0.432-1.271-0.989-2.509-1.587-3.713
		c-2.012-4.052-4.325-7.978-5.083-12.536c0-4.724,0-9.448,0-14.173c0.263-1.483,0.599-2.96,0.774-4.454
		c0.848-7.213,2.667-14.145,6.263-20.488c1.937-3.418,4.177-6.621,7.417-9.066c2.909-2.196,6.097-3.63,9.562-4.572
		c2.625,0,5.25,0,7.874,0c0.07,0.103,0.127,0.28,0.213,0.295c5.512,0.956,10.029,3.729,14.082,7.476
		c4.486,4.146,7.603,9.227,10.133,14.256c2.583-0.131,4.955-0.32,7.328-0.342c1.095-0.011,1.757-0.229,2.191-1.342
		c0.44-1.124,1.186-2.129,1.799-3.184c2.972-5.098,6.646-9.646,11.703-12.711c3.104-1.88,6.672-2.991,10.03-4.448
		c2.625,0,5.248,0,7.873,0c0.068,0.104,0.131,0.285,0.213,0.295c4.638,0.59,8.416,2.983,11.519,6.209
		c7.228,7.511,9.996,17.029,11.498,27.035c0.252,1.684,0.522,3.362,0.787,5.044C122.328,46.462,122.328,51.186,122.328,55.91z"/>
</g>
</svg>
